<?xml version="1.0" encoding="utf-8"?>
<!-- Generator: Adobe Illustrator 21.0.0, SVG Export Plug-In . SVG Version: 6.00 Build 0)  -->
<svg version="1.1" id="Слой_1" xmlns="http://www.w3.org/2000/svg" xmlns:xlink="http://www.w3.org/1999/xlink" x="0px" y="0px"
	 viewBox="0 0 40 40" style="enable-background:new 0 0 40 40;" xml:space="preserve">
<style type="text/css">
	.st0{fill-rule:evenodd;clip-rule:evenodd;fill:#FFFFFF;}
</style>
<path class="st0" d="M40,0H20H0v20v20h20h20V20V0L40,0z M22.5,15.6h2.6v3.9h-2.6v10.1h-5.4V19.5h-2v-3.9h2V15c0-0.6,0.1-1.2,0.2-1.9
	c0.1-0.7,0.4-1.2,0.7-1.7c0.3-0.4,0.8-0.8,1.4-1.1c0.6-0.3,1.5-0.4,2.7-0.4c0.9,0,2.3,0.1,4.1,0.3l-0.6,3.2
	c-0.6-0.1-1.2-0.2-1.6-0.2c-0.5,0-0.8,0.1-1,0.2c-0.2,0.2-0.4,0.4-0.4,0.8C22.5,14.6,22.5,15,22.5,15.6z"/>
</svg>
