<?xml version="1.0" encoding="utf-8"?>
<!-- Generator: Adobe Illustrator 21.0.0, SVG Export Plug-In . SVG Version: 6.00 Build 0)  -->
<svg version="1.1" id="Слой_1" xmlns="http://www.w3.org/2000/svg" xmlns:xlink="http://www.w3.org/1999/xlink" x="0px" y="0px"
	 viewBox="0 0 40 40" style="enable-background:new 0 0 40 40;" xml:space="preserve">
<style type="text/css">
	.st0{fill-rule:evenodd;clip-rule:evenodd;fill:#FFFFFF;}
</style>
<path class="st0" d="M0.1,14.8V20v19.9H20h19.9V20v-5.2H29.1c0.9,1.5,1.4,3.3,1.4,5.2c0,5.8-4.7,10.5-10.5,10.5
	c-5.8,0-10.5-4.7-10.5-10.5c0-1.9,0.5-3.7,1.4-5.2H0.1z"/>
<path class="st0" d="M35.8,3.9h-7.3v4.7h7.3V3.9L35.8,3.9z M39.9,0.1v13.3H28.1C26.2,11,23.3,9.5,20,9.5c-3.3,0-6.2,1.5-8.1,3.8H0.1
	V0.1H20H39.9z"/>
<circle class="st0" cx="20" cy="20" r="7.3"/>
</svg>
