<?xml version="1.0" encoding="utf-8"?>
<!-- Generator: Adobe Illustrator 21.0.0, SVG Export Plug-In . SVG Version: 6.00 Build 0)  -->
<svg version="1.1" id="Слой_1" xmlns="http://www.w3.org/2000/svg" xmlns:xlink="http://www.w3.org/1999/xlink" x="0px" y="0px"
	 viewBox="0 0 40 40" style="enable-background:new 0 0 40 40;" xml:space="preserve">
<style type="text/css">
	.st0{fill-rule:evenodd;clip-rule:evenodd;fill:#FFFFFF;}
</style>
<path class="st0" d="M0.1,14.8C0.1,14.8,0.1,14.8,0.1,14.8l0,5.2v16.9c0,1.7,1.3,3,3,3H20h16.9c1.7,0,3-1.3,3-3V20v-5.2c0,0,0,0,0,0
	H29.1c0,0,0,0,0,0c1.1,2,1.6,4.3,1.3,6.8c-0.7,4.6-4.5,8.3-9.1,8.8C14.9,31.1,9.5,26.2,9.5,20c0-1.9,0.5-3.7,1.4-5.2c0,0,0,0,0,0
	H0.1z"/>
<path class="st0" d="M35.8,3.9h-4.9c-1.3,0-2.3,1-2.3,2.3v0c0,1.3,1,2.3,2.3,2.3h2.6c1.3,0,2.3-1,2.3-2.3V3.9L35.8,3.9z M39.9,3.1
	v10.3H28.1C26.2,11,23.3,9.5,20,9.5c-3.3,0-6.2,1.5-8.1,3.8H0.1V3.1c0-1.7,1.3-3,3-3H20h16.9C38.6,0.1,39.9,1.4,39.9,3.1z"/>
<path class="st0" d="M18.6,12.8c5.1-1,9.6,3.5,8.6,8.6c-0.5,2.9-2.9,5.2-5.7,5.7c-5.1,1-9.6-3.5-8.6-8.6
	C13.4,15.7,15.7,13.4,18.6,12.8z"/>
</svg>
