<?xml version="1.0" encoding="utf-8"?>
<!-- Generator: Adobe Illustrator 21.0.0, SVG Export Plug-In . SVG Version: 6.00 Build 0)  -->
<svg version="1.1" id="Слой_1" xmlns="http://www.w3.org/2000/svg" xmlns:xlink="http://www.w3.org/1999/xlink" x="0px" y="0px"
	 viewBox="0 0 40 40" style="enable-background:new 0 0 40 40;" xml:space="preserve">
<style type="text/css">
	.st0{fill-rule:evenodd;clip-rule:evenodd;fill:#FFFFFF;}
</style>
<path class="st0" d="M40,0H20H0v20v20h20h20V20V0L40,0z M18.7,7.4c3.9-1.1,7.1,1.8,7.7,4.8c0.9,3.8-1.9,7-4.9,7.6
	C13.7,21.7,10.3,9.8,18.7,7.4L18.7,7.4z M18.6,25.4c-0.4-0.2-1.6-0.4-2.1-0.6c-6.2-2-4-5-2.2-4.8c0.6,0.1,1.2,0.6,1.7,0.9
	c2.6,1.5,6,1.5,8.5-0.1c0.5-0.3,1-0.9,1.8-0.8c1.1,0.1,3.4,2-0.6,4c-2.2,1.1-2.3,0.8-4,1.3c0.3,0.6,3.4,3.5,4.3,4.4
	c1.5,1.5,0.2,3.2-1.3,3c-1-0.1-4-3.4-4.5-4c-1.2,0.6-3.4,3.8-4.6,4c-1.6,0.3-2.9-1.6-1.3-3.1L18.6,25.4L18.6,25.4z M19.4,10.6
	c1.9-0.5,3.5,0.8,3.8,2.3c0.5,1.9-0.8,3.4-2.2,3.8C17,17.8,15.3,11.8,19.4,10.6z"/>
</svg>
