<?xml version="1.0" encoding="utf-8"?>
<!-- Generator: Adobe Illustrator 21.0.0, SVG Export Plug-In . SVG Version: 6.00 Build 0)  -->
<svg version="1.1" id="Слой_1" xmlns="http://www.w3.org/2000/svg" xmlns:xlink="http://www.w3.org/1999/xlink" x="0px" y="0px"
	 viewBox="0 0 40 40" style="enable-background:new 0 0 40 40;" xml:space="preserve">
<style type="text/css">
	.st0{fill-rule:evenodd;clip-rule:evenodd;fill:#FFFFFF;}
</style>
<path class="st0" d="M40,0H20H0v20v20h20h20V20V0L40,0z M12.7,10.6h10.7c1.8,0,3.2,0.4,4.1,1.3c1,0.9,1.4,2,1.4,3.3
	c0,1.1-0.3,2-1,2.8c-0.5,0.5-1.1,0.9-2,1.2c1.3,0.3,2.3,0.9,2.9,1.6c0.6,0.8,0.9,1.8,0.9,2.9c0,1-0.2,1.8-0.7,2.6
	c-0.4,0.8-1.1,1.4-1.8,1.8c-0.5,0.3-1.2,0.5-2.2,0.6c-1.3,0.2-2.1,0.3-2.6,0.3h-9.9V10.6L12.7,10.6z M18.5,17.9v-3.5h2.5
	c0.9,0,1.5,0.2,1.8,0.5c0.3,0.3,0.5,0.7,0.5,1.3c0,0.6-0.2,1-0.5,1.3c-0.3,0.3-1,0.5-1.9,0.5H18.5L18.5,17.9z M18.5,25.1v-3.8h2.9
	c1,0,1.7,0.2,2.1,0.5c0.4,0.3,0.6,0.8,0.6,1.3c0,0.6-0.2,1.1-0.6,1.4c-0.4,0.3-1.1,0.5-2.1,0.5H18.5z"/>
</svg>
