<?xml version="1.0" encoding="utf-8"?>
<!-- Generator: Adobe Illustrator 21.0.0, SVG Export Plug-In . SVG Version: 6.00 Build 0)  -->
<svg version="1.1" id="Слой_1" xmlns="http://www.w3.org/2000/svg" xmlns:xlink="http://www.w3.org/1999/xlink" x="0px" y="0px"
	 viewBox="0 0 40 40" style="enable-background:new 0 0 40 40;" xml:space="preserve">
<style type="text/css">
	.st0{fill:#3A589B;}
	.st1{fill:#FFFFFF;}
</style>
<path class="st0" d="M3,0h34c1.7,0,3,1.3,3,3v34c0,1.7-1.3,3-3,3H3c-1.7,0-3-1.3-3-3V3C0,1.3,1.3,0,3,0z"/>
<path class="st1" d="M17.2,30.9h4.5V20h3l0.4-3.7h-3.4v-1.9c0-1,0.1-1.5,1.5-1.5H25V9.1h-3c-3.6,0-4.9,1.8-4.9,4.9v2.3h-2.2V20h2.2
	v10.9H17.2z"/>
</svg>
