<?xml version="1.0" encoding="utf-8"?>
<!-- Generator: Adobe Illustrator 21.0.0, SVG Export Plug-In . SVG Version: 6.00 Build 0)  -->
<svg version="1.1" id="Слой_1" xmlns="http://www.w3.org/2000/svg" xmlns:xlink="http://www.w3.org/1999/xlink" x="0px" y="0px"
	 viewBox="0 0 40 40" style="enable-background:new 0 0 40 40;" xml:space="preserve">
<style type="text/css">
	.st0{fill:#336699;}
	.st1{fill:#FFFFFF;}
</style>
<g id="Layer_x0020_1">
	<g id="_521256328">
		<path class="st0" d="M3,0h34c1.7,0,3,1.3,3,3v34c0,1.7-1.3,3-3,3H3c-1.7,0-3-1.3-3-3V3C0,1.3,1.3,0,3,0z"/>
		<g>
			<path class="st1" d="M14.8,6.1h10.4c2.3,0,4.4,0.9,5.8,2.5c1.5,1.5,2.4,3.5,2.4,5.8v11c0,2.3-0.9,4.3-2.4,5.8
				c-1.5,1.5-3.5,2.4-5.8,2.4H14.8c-2.3,0-4.4-0.9-5.8-2.4c-1.6-1.6-2.5-3.5-2.5-5.8v-11c0-2.3,0.9-4.4,2.5-5.8
				C10.4,7.1,12.5,6.1,14.8,6.1z M25.2,8.5H14.8c-1.7,0-3.1,0.6-4.3,1.7c-1,1.1-1.8,2.6-1.8,4.3v11c0,1.6,0.7,3.1,1.8,4.2
				c1.1,1.1,2.6,1.8,4.3,1.8h10.4c1.7,0,3.1-0.6,4.2-1.8c1.1-1,1.8-2.6,1.8-4.2v-11c0-1.7-0.6-3.1-1.8-4.3
				C28.3,9.2,26.9,8.5,25.2,8.5z"/>
			<path class="st1" d="M20,12.8c2,0,3.8,0.7,5,2.1c1.3,1.3,2.1,3,2.1,5s-0.8,3.6-2.1,5c-1.3,1.3-3,2.1-5,2.1s-3.8-0.8-5-2.1
				c-1.4-1.4-2.1-3-2.1-5s0.7-3.8,2.1-5C16.3,13.5,18,12.8,20,12.8z M23.3,16.5c-0.8-0.8-2.1-1.4-3.3-1.4c-1.4,0-2.5,0.5-3.4,1.4
				c-0.8,0.9-1.4,2.1-1.4,3.4c0,1.3,0.5,2.5,1.4,3.3c0.9,0.8,2.1,1.4,3.4,1.4c1.3,0,2.5-0.5,3.3-1.4c0.8-0.8,1.5-2.1,1.5-3.3
				C24.8,18.5,24.2,17.4,23.3,16.5z"/>
			<circle class="st1" cx="27.6" cy="12.4" r="1.7"/>
		</g>
	</g>
</g>
</svg>
