<?xml version="1.0" encoding="utf-8"?>
<!-- Generator: Adobe Illustrator 21.0.0, SVG Export Plug-In . SVG Version: 6.00 Build 0)  -->
<svg version="1.1" id="Слой_1" xmlns="http://www.w3.org/2000/svg" xmlns:xlink="http://www.w3.org/1999/xlink" x="0px" y="0px"
	 viewBox="0 0 40 40" style="enable-background:new 0 0 40 40;" xml:space="preserve">
<style type="text/css">
	.st0{fill:#F48420;}
	.st1{fill:#FFFFFF;}
</style>
<g id="g5499">
	<path id="rect2987" class="st0" d="M3,0h34c1.7,0,3,1.3,3,3v34c0,1.7-1.3,3-3,3H3c-1.7,0-3-1.3-3-3V3C0,1.3,1.3,0,3,0z"/>
	<g id="g7980" transform="matrix(1.3569974,0,0,1.3569974,-1327.8679,-536.34264)">
		<path id="path9" class="st1" d="M993.3,410.1c3.2,0,5.8-2.6,5.8-5.8c0-3.2-2.6-5.8-5.8-5.8c-3.2,0-5.8,2.6-5.8,5.8
			S990.1,410.1,993.3,410.1z M993.3,401.4c1.6,0,2.9,1.3,2.9,2.9c0,1.6-1.3,2.9-2.9,2.9c-1.6,0-2.9-1.3-2.9-2.9
			C990.4,402.7,991.7,401.4,993.3,401.4L993.3,401.4z"/>
		<path id="path11-0" class="st1" d="M997.5,410.6c-1.6,1.3-4.3,1.3-4.3,1.3s-2.6,0-4.3-1.3c-1.2-1-2.1-0.4-2.5,0.3
			c-0.6,1.2,0.1,1.7,1.5,2.6c1.2,0.8,3,1.1,4.1,1.2l-0.9,0.9c-1.3,1.3-2.6,2.6-3.4,3.4c-0.5,0.5-0.5,1.4,0,1.9l0.2,0.2
			c0.5,0.5,1.4,0.5,1.9,0l3.4-3.4c1.3,1.3,2.6,2.6,3.4,3.4c0.5,0.5,1.4,0.5,1.9,0l0.2-0.2c0.5-0.5,0.5-1.4,0-1.9l-3.4-3.4l-0.9-0.9
			c1.1-0.1,2.8-0.4,4-1.2c1.5-0.9,2.1-1.5,1.5-2.6C999.7,410.2,998.8,409.6,997.5,410.6L997.5,410.6z"/>
	</g>
</g>
</svg>
