<?xml version="1.0" encoding="utf-8"?>
<!-- Generator: Adobe Illustrator 16.0.3, SVG Export Plug-In . SVG Version: 6.00 Build 0)  -->
<!DOCTYPE svg PUBLIC "-//W3C//DTD SVG 1.1//EN" "http://www.w3.org/Graphics/SVG/1.1/DTD/svg11.dtd">
<svg version="1.1" id="Слой_1" xmlns="http://www.w3.org/2000/svg" xmlns:xlink="http://www.w3.org/1999/xlink" x="0px" y="0px"
	 width="50px" height="50px" viewBox="0 0 50 50" enable-background="new 0 0 50 50" xml:space="preserve">
<path opacity="0.5" fill="#FFFFFF" enable-background="new    " d="M12.275,22.638l0.716-6.854l0.799-6.935L6.854,9.646L0,10.441
	l3.189,3.188c-1.757,3.346-2.792,7.256-2.792,11.241c0,13.792,11.242,25.028,24.872,25.028c13.792,0,25.031-11.235,25.031-25.028
	C50.3,11.238,39.061,0,25.269,0c-4.702,0-9.247,1.436-13.073,3.827l5.979,5.819c2.231-1.037,4.625-1.598,7.094-1.598
	c9.409,0,16.979,7.577,16.979,16.823c0,9.408-7.57,16.979-16.979,16.979c-9.247,0-16.819-7.57-16.819-16.979
	c0-1.676,0.319-3.588,0.797-5.103L12.275,22.638z"/>
</svg>
