<?xml version="1.0" encoding="utf-8"?>
<!-- Generator: Adobe Illustrator 21.0.0, SVG Export Plug-In . SVG Version: 6.00 Build 0)  -->
<svg version="1.1" id="Слой_1" xmlns="http://www.w3.org/2000/svg" xmlns:xlink="http://www.w3.org/1999/xlink" x="0px" y="0px"
	 viewBox="0 0 40 40" style="enable-background:new 0 0 40 40;" xml:space="preserve">
<style type="text/css">
	.st0{fill:#54769B;}
	.st1{fill:#FFFFFF;}
</style>
<path class="st0" d="M37,0H3C1.4,0,0,1.4,0,3v34c0,1.7,1.4,3,3,3h34c1.7,0,3-1.3,3-3V3C40,1.4,38.7,0,37,0z"/>
<path id="VK_1_" class="st1" d="M20.8,27.5c0.8,0,0.8-1.2,0.8-1.7c0-0.8,0.8-1.7,1.7-1.7c0.8,0,2.3,1.4,3.3,2.5
	c0.8,0.8,0.8,0.8,1.7,0.8c0.8,0,2.5,0,2.5,0s1.7-0.1,1.7-1.7c0-0.5-0.6-1.4-2.5-3.3c-1.7-1.7-2.5-0.8,0-4.2c1.5-2.1,2.7-3.9,2.5-4.4
	c-0.2-0.5-4.4-1.3-5-0.6c-1.7,2.5-2,3.1-2.5,4.2c-0.8,1.7-0.9,2.5-1.7,2.5c-0.8,0-0.8-1.6-0.8-2.5c0-2.7,0.4-4.7-0.8-5
	c0,0-1.7,0-2.5,0c-1.3,0-2.5,0.8-2.5,0.8s-1,0.8-0.8,0.8c0.2,0,1.7-0.3,1.7,0.8c0,0.8,0,1.7,0,1.7s0,3.3-0.8,3.3
	c-0.8,0-2.5-3.3-4.2-5.8c-0.7-1-0.8-0.8-1.7-0.8c-0.9,0-1.7,0-2.5,0c-0.8,0-0.9,0.5-0.8,0.8c1.7,4.2,2.8,6.8,6,10.1
	c2.9,3,4.8,3.2,6.5,3.3C20.4,27.5,20,27.5,20.8,27.5z"/>
</svg>
